<svg xmlns="http://www.w3.org/2000/svg" xmlns:xlink="http://www.w3.org/1999/xlink" viewBox="0,0,256,256" width="400px" height="400px"><g fill="none" fill-rule="nonzero" stroke="none" stroke-width="1" stroke-linecap="butt" stroke-linejoin="miter" stroke-miterlimit="10" stroke-dasharray="" stroke-dashoffset="0" font-family="none" font-weight="none" font-size="none" text-anchor="none" style="mix-blend-mode: normal"><g transform="scale(2.56,2.56)"><path d="M71.99,88.11c-14.66,1.19 -29.31,1.19 -43.97,0c-3.67,-0.3 -6.52,-3.29 -6.71,-6.96c-1.04,-20.43 -1.04,-40.86 0,-61.3c0.19,-3.68 3.05,-6.66 6.72,-6.96c9.87,-0.8 19.74,-1.06 29.62,-0.78c2.13,0.06 4.14,0.98 5.62,2.52c4.46,4.66 9.01,9.34 13.6,13.94c1.47,1.47 2.33,3.45 2.39,5.53c0.43,15.69 0.24,31.37 -0.55,47.06c-0.19,3.67 -3.04,6.66 -6.71,6.96z" fill="#edd5ab"></path><path d="M50,73c2.57,0 4.68,-1.94 4.97,-4.43c0.03,-0.3 -0.19,-0.57 -0.49,-0.57c-1.73,0 -7.22,0 -8.95,0c-0.3,0 -0.53,0.27 -0.49,0.57c0.28,2.49 2.4,4.43 4.97,4.43z" fill="#816100"></path><circle cx="39.5" cy="61.5" r="5.5" fill="#ffffff"></circle><circle cx="39.5" cy="61.5" r="2.5" fill="#816100"></circle><circle cx="60.5" cy="61.5" r="5.5" fill="#ffffff"></circle><circle cx="60.5" cy="61.5" r="2.5" fill="#816100"></circle><path d="M68.63,31.42h10.08c-0.41,-1.06 -1.03,-2.04 -1.85,-2.87c-4.58,-4.6 -9.13,-9.28 -13.6,-13.94c-0.9,-0.94 -2,-1.64 -3.21,-2.07l0.02,10.32c0.01,4.72 3.84,8.54 8.56,8.54z" fill="#b69f74"></path></g></g></svg>